PathFileType	4	(X/Y/Z)	Patient4_TMGait_0pt6_01_right_01.trc.trc
DataRate	CameraRate	NumFrames	NumMarkers	Units	OrigDataRate	OrigDataStartFrame	OrigNumFrames
82.352941176471	82.352941176471	5	33	mm	82.352941176471	106	       141
Frame#	Time	Sacral			L.Shoulder			Chest			R.Shoulder			Neck			R.ASIS			L.ASIS			R.Thigh.Superior			R.Thigh.Lateral			R.Thigh.Inferior			R.Patella			L.Thigh.Superior			L.Thigh.Lateral			L.Thigh.Inferior			L.Patella			L.Shank.Superior			L.Shank.Lateral			L.Shank.Inferior			R.Shank.Superior			R.Shank.Lateral			R.Shank.Inferior			R.Heel			R.Midfoot.Superior			R.Midfoot.Lateral			R.Toe			L.Heel			L.Midfoot.Lateral			L.Midfoot.Superior			L.Toe			L.Elbow			L.Wrist			R.Elbow			R.Wrist			
		X1	Y1	Z1	X2	Y2	Z2	X3	Y3	Z3	X4	Y4	Z4	X5	Y5	Z5	X6	Y6	Z6	X7	Y7	Z7	X8	Y8	Z8	X9	Y9	Z9	X10	Y10	Z10	X11	Y11	Z11	X12	Y12	Z12	X13	Y13	Z13	X14	Y14	Z14	X15	Y15	Z15	X16	Y16	Z16	X17	Y17	Z17	X18	Y18	Z18	X19	Y19	Z19	X20	Y20	Z20	X21	Y21	Z21	X22	Y22	Z22	X23	Y23	Z23	X24	Y24	Z24	X25	Y25	Z25	X26	Y26	Z26	X27	Y27	Z27	X28	Y28	Z28	X29	Y29	Z29	X30	Y30	Z30	X31	Y31	Z31	X32	Y32	Z32	X33	Y33	Z33	

106	1.865000000000	585.141003612453	1006.016346312974	414.454892106985	738.881623739986	1444.544629568227	235.292860279675	848.188369170495	1376.731979890121	391.980033073380	765.750438168129	1439.823676654715	569.840992491716	725.236357553246	1500.594108044930	393.532728284745	819.012344835792	947.903568437293	522.172533594720	799.159632188550	972.058365610938	247.768274336225	903.183915373378	781.009676083641	489.857701889016	870.166721196038	660.207213835970	567.892434658887	956.464397028369	621.045898037635	484.541005180355	980.015315904243	509.937166709092	508.388396277279	831.844270358271	748.933614639965	277.006116219966	729.251685889376	637.973210891136	227.349747132015	810.564697257056	555.628378042096	285.310349343859	806.020360995692	487.360634620163	297.696171501335	779.293343938353	416.887684405091	293.964409826137	684.291908515589	301.857104372736	255.433945084771	740.656473858797	192.946964724560	326.680425422641	910.133102827465	431.001891362976	517.173897827657	795.187531522167	379.298535668875	579.935279228258	790.734990752997	269.467780722667	530.906059692847	595.930885951936	185.712207519158	507.704423579120	770.825963088420	146.942730773898	542.752655227444	663.276330869687	133.276583403102	579.272650653282	849.518203002641	44.293746535126	568.724285369923	617.531074369545	38.608165404909	388.754206908902	682.330867613904	34.316645315957	300.034940950728	768.162447446935	95.607206534984	316.316323570044	892.862533701078	42.527526738571	275.130821633194	793.443535903819	1102.388558371617	94.927410065680	989.312371081498	929.615310069324	99.980220461733	696.220566061385	1096.328610659733	677.166296591978	718.926869426538	835.120956943921	678.182838173733	
107	1.877142857143	584.268787618934	1006.201346700493	413.657056897125	739.811283995536	1444.476392568745	234.621935296193	848.112437324077	1376.517368180837	391.887390281621	764.935491302573	1439.985539858053	569.220915623106	725.312165946341	1500.587147845321	392.669645147212	817.754904404620	947.998339220236	522.193090664844	799.014580325880	971.911708793986	247.591782677239	902.585390049491	782.139951897781	489.896471586692	870.778542166835	661.169547593892	568.109855222631	956.699671774981	622.439255002323	484.318789534723	981.726486525406	512.790264363216	508.283641923100	829.083457124445	748.013857335271	277.429561103124	725.406695211669	638.026629138037	227.146860554999	805.432208128908	554.882986767457	285.377763172708	800.069059669697	486.783061422419	297.727703374625	773.214166700590	416.594427576536	293.871235599546	677.690809147595	301.951793789093	255.209028788116	733.681430354431	192.840891910033	326.579034448686	915.070600040222	432.016849724337	517.070245761670	802.835933210723	374.943018264829	579.959138305074	803.405210821593	265.043502960294	530.663611685460	612.631745535022	171.972454477928	507.490324580439	789.156499642027	142.009113378256	542.515357795938	682.509613191140	123.243092684724	579.287755792823	872.913304375465	43.487832599385	569.030508013362	610.175889892422	38.647716065235	388.697144524929	674.988899274994	34.289481990970	300.003661370248	760.844012232614	95.559467996436	316.283076964643	885.543495367657	42.462564048016	275.131993601257	797.458358376021	1103.495136249306	93.492203963904	999.709450318084	938.319254627143	98.963050803011	687.313473353259	1098.978729095431	677.079460928183	701.037416923375	837.301976210635	679.199563661593	
108	1.889285714286	583.447451896182	1006.270499845162	412.942212268285	740.767682342888	1444.243381568138	234.055990924940	848.077983393547	1376.170186706843	391.903860877024	764.191055056030	1440.080484760464	568.700477280262	725.441096254166	1500.466858636849	391.870173869996	816.517009542598	947.930385751532	522.343039040851	798.777619610337	971.592109100751	247.574427995965	901.665827002288	782.785905609416	490.113838209632	870.692289559798	661.674145621667	568.403337718261	956.225266128978	623.234560111995	484.274336132080	982.588249771970	515.242807540626	508.293235546912	826.422229868968	747.048669020228	277.835352675650	721.652697079480	638.037737408781	226.990822668261	800.403172963469	554.114624899821	285.467205940620	794.254153198645	486.195637842285	297.775416356860	767.240534843729	416.273046365422	293.812758689350	671.181901297756	302.043412219634	255.020640583080	726.751431503683	192.717837440437	326.506907584159	919.444451628926	432.739890003515	517.119146879009	810.434864578762	370.139422495936	580.256089813648	816.311901853794	260.442740134975	530.675112687364	630.403163179707	157.772759822964	507.592635375482	808.097542791455	137.128806933822	542.574900786374	702.700734506808	113.057263665871	579.633185916759	896.880739758504	43.168815223203	569.609433162394	602.842501876666	38.692530213892	388.629688901715	667.649954795636	34.262438519193	299.975155664223	753.533531900458	95.512580722497	316.261731320917	878.227397845392	42.395660997292	275.138166336410	801.108001734306	1104.312099230015	92.351154676282	1009.309012650110	946.787015845119	98.187202089386	678.617493441998	1101.764743432286	677.139588613009	684.227513699099	839.987972923436	680.316333895848	
109	1.901428571429	582.698773889271	1006.236792220105	412.312696659695	741.738370750949	1443.859436676832	233.601337471900	848.082129989370	1375.709277296472	392.032783472914	763.516663358558	1440.118964391523	568.289269522017	725.617110365951	1500.249218624723	391.144797373451	815.313349175668	947.706498873332	522.627574584809	798.485176064980	971.129983836518	247.715064245798	900.404053605790	782.930985787360	490.495521767273	869.849088026290	661.707364559352	568.768962359381	955.012288268261	623.416658049061	484.420373594135	982.583086935813	517.269181614795	508.404231719033	823.871346345108	746.044242902213	278.209999147139	717.981925775182	638.016600936067	226.890366927215	795.476136721796	553.330757607112	285.579356493428	788.574395985066	485.602705263097	297.842234369441	761.363644478110	415.932528114587	293.791095449076	664.753142483131	302.141535780973	254.873265825067	719.862296921947	192.583620464469	326.460243461912	923.217532741801	433.202542895466	517.308056511021	817.968564512734	364.998016452961	580.802778965948	829.399402653486	255.821976019515	530.909644254747	649.241621111242	143.380056301453	507.945242169240	827.575378651879	132.506188405193	542.898875721918	723.797057519057	102.960546436485	580.246619669613	921.275324994359	43.548240618834	570.417175217048	595.528150403421	38.745455145251	388.553073155935	660.313063277473	34.237745983324	299.948726752744	746.230245040184	95.466764097223	316.248990141374	870.912109551691	42.325391014288	275.148390053362	804.422384884458	1104.847142763774	91.504817575048	1018.096780980608	954.929716764764	97.655428111854	670.223993610790	1104.649035921329	677.305347434281	668.534788533700	843.036817004500	681.525119152554	
110	1.913571428571	582.046787150031	1006.110889753511	411.775201813174	742.715255375813	1443.340530526907	233.263973046457	848.124273740125	1375.153278089359	392.276243509563	762.912833863175	1440.109786168800	567.995280389058	725.833457624726	1499.948544666829	390.503786556873	814.161528779798	947.334254094827	523.050446641982	798.180902275511	970.558244687245	248.010023542149	898.790552836968	782.564368227584	491.038906440208	868.209908385225	661.266186392250	569.217005381955	953.050751055735	622.982545834891	484.777344941046	981.707441931229	518.849742589191	508.612993746566	821.432714843952	745.007631007021	278.552692804620	714.384086681347	637.974474861785	226.851755859882	790.644329660473	552.541665264292	285.715986215021	783.018513391771	485.008367775589	297.931705472598	755.567639534710	415.583050365549	293.807544737276	658.387436096747	302.255855067394	254.769799590183	713.007271811052	192.445531390385	326.434141145763	926.358176242523	433.439970398328	517.626987424240	825.401591939482	359.632299249148	581.560599527140	842.589298099948	251.332494916487	531.321569831306	669.084355628130	129.073460476637	508.453317382087	847.483307090003	128.321725219949	543.433541316399	745.691169844749	93.181859135112	581.033167438533	945.920171532578	44.780275038331	571.385727068300	588.227607395822	38.809396505941	388.470396104748	652.977053419835	34.217874206783	299.923680945111	738.932849248268	95.422084329669	316.241397028868	863.595199130192	42.251432406217	275.161765034259	807.427145022292	1105.114165319826	90.952265791248	1026.064568706186	962.661024625428	97.369370982424	662.227849170603	1107.586542826747	677.545156970056	653.997375970786	846.315460042346	682.816446483690	
